<mxfile host="Electron" agent="Mozilla/5.0 (X11; Linux x86_64) AppleWebKit/537.36 (KHTML, like Gecko) draw.io/24.7.5 Chrome/126.0.6478.183 Electron/31.3.0 Safari/537.36" version="24.7.5">
  <diagram name="Page-1" id="HhAsQGpkHMBNVi5HSgb-">
    <mxGraphModel dx="2200" dy="1929" grid="1" gridSize="10" guides="1" tooltips="1" connect="1" arrows="1" fold="1" page="1" pageScale="1" pageWidth="850" pageHeight="1100" math="0" shadow="0">
      <root>
        <mxCell id="0" />
        <mxCell id="1" parent="0" />
        <mxCell id="QymxJ_FqeQYcQsXggECh-10" value="wbi2cmaster" style="rounded=0;whiteSpace=wrap;html=1;fontSize=18;fontStyle=1;verticalAlign=bottom;fillColor=#f5f5f5;fontColor=#333333;strokeColor=#666666;" parent="1" vertex="1">
          <mxGeometry x="-150" y="-40" width="660" height="520" as="geometry" />
        </mxCell>
        <mxCell id="QymxJ_FqeQYcQsXggECh-34" value="&lt;font style=&quot;font-size: 18px;&quot;&gt;&lt;b&gt;IRQ&lt;/b&gt;&lt;/font&gt;" style="endArrow=classic;html=1;rounded=0;exitX=0;exitY=0.75;exitDx=0;exitDy=0;strokeWidth=5.1181;" parent="1" source="QymxJ_FqeQYcQsXggECh-14" edge="1">
          <mxGeometry x="1" y="40" width="50" height="50" relative="1" as="geometry">
            <mxPoint x="-60" y="420" as="sourcePoint" />
            <mxPoint x="-180" y="400" as="targetPoint" />
            <mxPoint x="-40" y="-40" as="offset" />
          </mxGeometry>
        </mxCell>
        <mxCell id="QymxJ_FqeQYcQsXggECh-2" value="&lt;font style=&quot;font-size: 18px;&quot;&gt;0&lt;/font&gt;" style="rounded=0;whiteSpace=wrap;html=1;strokeColor=none;" parent="1" vertex="1">
          <mxGeometry x="120" y="80" width="40" height="40" as="geometry" />
        </mxCell>
        <mxCell id="QymxJ_FqeQYcQsXggECh-1" value="" style="rounded=0;whiteSpace=wrap;html=1;fillColor=#fff2cc;strokeColor=#d6b656;" parent="1" vertex="1">
          <mxGeometry x="160" y="80" width="40" height="40" as="geometry" />
        </mxCell>
        <mxCell id="QymxJ_FqeQYcQsXggECh-3" value="&lt;font style=&quot;font-size: 18px;&quot;&gt;1&lt;/font&gt;" style="rounded=0;whiteSpace=wrap;html=1;strokeColor=none;" parent="1" vertex="1">
          <mxGeometry x="120" y="120" width="40" height="40" as="geometry" />
        </mxCell>
        <mxCell id="QymxJ_FqeQYcQsXggECh-4" value="" style="rounded=0;whiteSpace=wrap;html=1;fillColor=#fff2cc;strokeColor=#d6b656;" parent="1" vertex="1">
          <mxGeometry x="160" y="120" width="40" height="40" as="geometry" />
        </mxCell>
        <mxCell id="QymxJ_FqeQYcQsXggECh-5" value="&lt;font style=&quot;font-size: 18px;&quot;&gt;...&lt;/font&gt;" style="rounded=0;whiteSpace=wrap;html=1;strokeColor=none;" parent="1" vertex="1">
          <mxGeometry x="120" y="160" width="40" height="40" as="geometry" />
        </mxCell>
        <mxCell id="QymxJ_FqeQYcQsXggECh-6" value="" style="rounded=0;whiteSpace=wrap;html=1;dashed=1;fillColor=#fff2cc;strokeColor=#d6b656;" parent="1" vertex="1">
          <mxGeometry x="160" y="160" width="40" height="40" as="geometry" />
        </mxCell>
        <mxCell id="QymxJ_FqeQYcQsXggECh-7" value="255" style="rounded=0;whiteSpace=wrap;html=1;strokeColor=none;fontSize=18;" parent="1" vertex="1">
          <mxGeometry x="120" y="200" width="40" height="40" as="geometry" />
        </mxCell>
        <mxCell id="QymxJ_FqeQYcQsXggECh-8" value="" style="rounded=0;whiteSpace=wrap;html=1;fillColor=#fff2cc;strokeColor=#d6b656;" parent="1" vertex="1">
          <mxGeometry x="160" y="200" width="40" height="40" as="geometry" />
        </mxCell>
        <mxCell id="QymxJ_FqeQYcQsXggECh-9" value="I2C&lt;div&gt;Proxy Memory&lt;/div&gt;" style="text;html=1;align=center;verticalAlign=middle;whiteSpace=wrap;rounded=0;fontSize=17;fontStyle=1" parent="1" vertex="1">
          <mxGeometry x="150" y="20" width="60" height="30" as="geometry" />
        </mxCell>
        <mxCell id="QymxJ_FqeQYcQsXggECh-12" value="Wisbone&lt;div style=&quot;font-size: 18px;&quot;&gt;Frontend&lt;/div&gt;" style="rounded=0;whiteSpace=wrap;html=1;fontSize=18;fontStyle=1;fillColor=#e1d5e7;strokeColor=#9673a6;" parent="1" vertex="1">
          <mxGeometry x="-120" y="-10" width="120" height="290" as="geometry" />
        </mxCell>
        <mxCell id="QymxJ_FqeQYcQsXggECh-13" value="lli2cm" style="rounded=0;whiteSpace=wrap;html=1;fontSize=18;fontStyle=1;fillColor=#e1d5e7;strokeColor=#9673a6;verticalAlign=top;" parent="1" vertex="1">
          <mxGeometry x="360" y="40" width="120" height="200" as="geometry" />
        </mxCell>
        <mxCell id="QymxJ_FqeQYcQsXggECh-14" value="High Level&lt;div&gt;Transaction&lt;/div&gt;&lt;div&gt;FSM&lt;/div&gt;" style="rounded=0;whiteSpace=wrap;html=1;fontSize=18;fontStyle=1;fillColor=#d5e8d4;strokeColor=#82b366;" parent="1" vertex="1">
          <mxGeometry x="360" y="280" width="120" height="160" as="geometry" />
        </mxCell>
        <mxCell id="QymxJ_FqeQYcQsXggECh-16" value="&lt;font style=&quot;font-size: 16px;&quot;&gt;Read/&lt;/font&gt;&lt;div style=&quot;font-size: 16px;&quot;&gt;&lt;font style=&quot;font-size: 16px;&quot;&gt;Write&lt;/font&gt;&lt;/div&gt;" style="shape=flexArrow;endArrow=classic;html=1;rounded=0;entryX=0;entryY=0.5;entryDx=0;entryDy=0;fillColor=default;" parent="1" target="QymxJ_FqeQYcQsXggECh-3" edge="1">
          <mxGeometry width="50" height="50" relative="1" as="geometry">
            <mxPoint x="10" y="140" as="sourcePoint" />
            <mxPoint x="100" y="139.5" as="targetPoint" />
          </mxGeometry>
        </mxCell>
        <mxCell id="QymxJ_FqeQYcQsXggECh-17" value="CMD Reg." style="rounded=0;whiteSpace=wrap;html=1;fontSize=18;fontStyle=1;fillColor=#fff2cc;strokeColor=#d6b656;" parent="1" vertex="1">
          <mxGeometry x="120" y="280" width="120" height="40" as="geometry" />
        </mxCell>
        <mxCell id="QymxJ_FqeQYcQsXggECh-19" value="SPD Reg." style="rounded=0;whiteSpace=wrap;html=1;fontSize=18;fontStyle=1;fillColor=#fff2cc;strokeColor=#d6b656;" parent="1" vertex="1">
          <mxGeometry x="120" y="320" width="120" height="40" as="geometry" />
        </mxCell>
        <mxCell id="QymxJ_FqeQYcQsXggECh-20" value="ISR Reg." style="rounded=0;whiteSpace=wrap;html=1;fontSize=18;fontStyle=1;fillColor=#fff2cc;strokeColor=#d6b656;" parent="1" vertex="1">
          <mxGeometry x="120" y="360" width="120" height="40" as="geometry" />
        </mxCell>
        <mxCell id="QymxJ_FqeQYcQsXggECh-21" value="IEN Reg." style="rounded=0;whiteSpace=wrap;html=1;fontSize=18;fontStyle=1;fillColor=#fff2cc;strokeColor=#d6b656;" parent="1" vertex="1">
          <mxGeometry x="120" y="400" width="120" height="40" as="geometry" />
        </mxCell>
        <mxCell id="QymxJ_FqeQYcQsXggECh-23" value="" style="endArrow=classic;html=1;rounded=0;exitX=0.5;exitY=0;exitDx=0;exitDy=0;entryX=0.5;entryY=1;entryDx=0;entryDy=0;startArrow=classic;startFill=1;" parent="1" source="QymxJ_FqeQYcQsXggECh-14" target="QymxJ_FqeQYcQsXggECh-13" edge="1">
          <mxGeometry width="50" height="50" relative="1" as="geometry">
            <mxPoint x="600" y="220" as="sourcePoint" />
            <mxPoint x="650" y="170" as="targetPoint" />
          </mxGeometry>
        </mxCell>
        <mxCell id="QymxJ_FqeQYcQsXggECh-25" value="" style="endArrow=classic;html=1;rounded=0;edgeStyle=orthogonalEdgeStyle;" parent="1" source="QymxJ_FqeQYcQsXggECh-17" target="QymxJ_FqeQYcQsXggECh-14" edge="1">
          <mxGeometry width="50" height="50" relative="1" as="geometry">
            <mxPoint x="700" y="320" as="sourcePoint" />
            <mxPoint x="750" y="270" as="targetPoint" />
            <Array as="points">
              <mxPoint x="340" y="300" />
              <mxPoint x="340" y="360" />
            </Array>
          </mxGeometry>
        </mxCell>
        <mxCell id="QymxJ_FqeQYcQsXggECh-27" value="SCL" style="endArrow=classic;startArrow=classic;html=1;rounded=0;exitX=1;exitY=0.4;exitDx=0;exitDy=0;exitPerimeter=0;fontSize=18;entryX=-0.014;entryY=0.308;entryDx=0;entryDy=0;entryPerimeter=0;" parent="1" source="QymxJ_FqeQYcQsXggECh-13" target="QymxJ_FqeQYcQsXggECh-29" edge="1">
          <mxGeometry width="50" height="50" relative="1" as="geometry">
            <mxPoint x="650" y="120" as="sourcePoint" />
            <mxPoint x="720" y="121" as="targetPoint" />
          </mxGeometry>
        </mxCell>
        <mxCell id="QymxJ_FqeQYcQsXggECh-28" value="SDA" style="endArrow=classic;startArrow=classic;html=1;rounded=0;fontSize=18;" parent="1" edge="1">
          <mxGeometry width="50" height="50" relative="1" as="geometry">
            <mxPoint x="480" y="160" as="sourcePoint" />
            <mxPoint x="637" y="160" as="targetPoint" />
          </mxGeometry>
        </mxCell>
        <mxCell id="QymxJ_FqeQYcQsXggECh-29" value="I2C&lt;div style=&quot;font-size: 18px;&quot;&gt;Slave&lt;/div&gt;" style="rounded=0;whiteSpace=wrap;html=1;fontSize=18;fontStyle=1;fillColor=#f5f5f5;strokeColor=#666666;verticalAlign=bottom;fontColor=#333333;" parent="1" vertex="1">
          <mxGeometry x="640" y="-40" width="200" height="520" as="geometry" />
        </mxCell>
        <mxCell id="QymxJ_FqeQYcQsXggECh-30" value="&lt;font style=&quot;font-size: 16px;&quot;&gt;Read/&lt;/font&gt;&lt;div style=&quot;font-size: 16px;&quot;&gt;&lt;font style=&quot;font-size: 16px;&quot;&gt;Write&lt;/font&gt;&lt;/div&gt;" style="shape=flexArrow;endArrow=classic;html=1;rounded=0;fillColor=default;" parent="1" edge="1">
          <mxGeometry width="50" height="50" relative="1" as="geometry">
            <mxPoint x="320" y="140" as="sourcePoint" />
            <mxPoint x="210" y="140" as="targetPoint" />
          </mxGeometry>
        </mxCell>
        <mxCell id="QymxJ_FqeQYcQsXggECh-31" value="" style="endArrow=classic;html=1;rounded=0;edgeStyle=orthogonalEdgeStyle;startArrow=classic;startFill=1;entryX=0.008;entryY=0.595;entryDx=0;entryDy=0;entryPerimeter=0;" parent="1" source="QymxJ_FqeQYcQsXggECh-17" target="QymxJ_FqeQYcQsXggECh-13" edge="1">
          <mxGeometry width="50" height="50" relative="1" as="geometry">
            <mxPoint x="280" y="260" as="sourcePoint" />
            <mxPoint x="330" y="210" as="targetPoint" />
            <Array as="points">
              <mxPoint x="340" y="300" />
              <mxPoint x="340" y="159" />
            </Array>
          </mxGeometry>
        </mxCell>
        <mxCell id="QymxJ_FqeQYcQsXggECh-32" value="" style="endArrow=classic;html=1;rounded=0;edgeStyle=orthogonalEdgeStyle;entryX=-0.008;entryY=0.42;entryDx=0;entryDy=0;entryPerimeter=0;jumpStyle=arc;" parent="1" source="QymxJ_FqeQYcQsXggECh-19" target="QymxJ_FqeQYcQsXggECh-13" edge="1">
          <mxGeometry width="50" height="50" relative="1" as="geometry">
            <mxPoint x="10" y="340" as="sourcePoint" />
            <mxPoint x="330" y="-230" as="targetPoint" />
            <Array as="points">
              <mxPoint x="330" y="340" />
              <mxPoint x="330" y="124" />
            </Array>
          </mxGeometry>
        </mxCell>
        <mxCell id="QymxJ_FqeQYcQsXggECh-36" value="" style="shape=flexArrow;endArrow=classic;html=1;rounded=0;entryX=-0.017;entryY=0.545;entryDx=0;entryDy=0;entryPerimeter=0;fillColor=default;" parent="1" target="QymxJ_FqeQYcQsXggECh-12" edge="1">
          <mxGeometry width="50" height="50" relative="1" as="geometry">
            <mxPoint x="-170" y="148" as="sourcePoint" />
            <mxPoint x="-170" y="130" as="targetPoint" />
          </mxGeometry>
        </mxCell>
        <mxCell id="QymxJ_FqeQYcQsXggECh-39" value="&lt;font style=&quot;font-size: 16px;&quot;&gt;Read/&lt;/font&gt;&lt;div style=&quot;font-size: 16px;&quot;&gt;&lt;font style=&quot;font-size: 16px;&quot;&gt;Write&lt;/font&gt;&lt;/div&gt;" style="shape=flexArrow;endArrow=classic;html=1;rounded=0;exitX=0.258;exitY=0.538;exitDx=0;exitDy=0;exitPerimeter=0;fillColor=default;" parent="1" source="QymxJ_FqeQYcQsXggECh-10" edge="1">
          <mxGeometry width="50" height="50" relative="1" as="geometry">
            <mxPoint x="20" y="170" as="sourcePoint" />
            <mxPoint x="100" y="290" as="targetPoint" />
          </mxGeometry>
        </mxCell>
        <mxCell id="QymxJ_FqeQYcQsXggECh-42" value="Low Level&lt;div style=&quot;font-size: 17px;&quot;&gt;Protocol FSM&lt;/div&gt;" style="rounded=0;whiteSpace=wrap;html=1;fontSize=17;fontStyle=1;fillColor=#d5e8d4;strokeColor=#82b366;" parent="1" vertex="1">
          <mxGeometry x="380" y="135" width="80" height="90" as="geometry" />
        </mxCell>
        <mxCell id="QymxJ_FqeQYcQsXggECh-44" value="&lt;font style=&quot;font-size: 18px;&quot;&gt;0&lt;/font&gt;" style="rounded=0;whiteSpace=wrap;html=1;strokeColor=none;" parent="1" vertex="1">
          <mxGeometry x="670" y="80" width="40" height="40" as="geometry" />
        </mxCell>
        <mxCell id="QymxJ_FqeQYcQsXggECh-45" value="" style="rounded=0;whiteSpace=wrap;html=1;fillColor=#fff2cc;strokeColor=#d6b656;" parent="1" vertex="1">
          <mxGeometry x="710" y="80" width="40" height="40" as="geometry" />
        </mxCell>
        <mxCell id="QymxJ_FqeQYcQsXggECh-46" value="&lt;font style=&quot;font-size: 18px;&quot;&gt;1&lt;/font&gt;" style="rounded=0;whiteSpace=wrap;html=1;strokeColor=none;" parent="1" vertex="1">
          <mxGeometry x="670" y="120" width="40" height="40" as="geometry" />
        </mxCell>
        <mxCell id="QymxJ_FqeQYcQsXggECh-47" value="" style="rounded=0;whiteSpace=wrap;html=1;fillColor=#fff2cc;strokeColor=#d6b656;" parent="1" vertex="1">
          <mxGeometry x="710" y="120" width="40" height="40" as="geometry" />
        </mxCell>
        <mxCell id="QymxJ_FqeQYcQsXggECh-48" value="&lt;font style=&quot;font-size: 18px;&quot;&gt;...&lt;/font&gt;" style="rounded=0;whiteSpace=wrap;html=1;strokeColor=none;" parent="1" vertex="1">
          <mxGeometry x="670" y="160" width="40" height="40" as="geometry" />
        </mxCell>
        <mxCell id="QymxJ_FqeQYcQsXggECh-49" value="" style="rounded=0;whiteSpace=wrap;html=1;dashed=1;fillColor=#fff2cc;strokeColor=#d6b656;" parent="1" vertex="1">
          <mxGeometry x="710" y="160" width="40" height="40" as="geometry" />
        </mxCell>
        <mxCell id="QymxJ_FqeQYcQsXggECh-50" value="255" style="rounded=0;whiteSpace=wrap;html=1;strokeColor=none;fontSize=18;" parent="1" vertex="1">
          <mxGeometry x="670" y="200" width="40" height="40" as="geometry" />
        </mxCell>
        <mxCell id="QymxJ_FqeQYcQsXggECh-51" value="" style="rounded=0;whiteSpace=wrap;html=1;fillColor=#fff2cc;strokeColor=#d6b656;" parent="1" vertex="1">
          <mxGeometry x="710" y="200" width="40" height="40" as="geometry" />
        </mxCell>
        <mxCell id="QymxJ_FqeQYcQsXggECh-52" value="I2C slave&lt;div&gt;registers&lt;/div&gt;" style="text;html=1;align=center;verticalAlign=middle;whiteSpace=wrap;rounded=0;fontSize=17;fontStyle=1" parent="1" vertex="1">
          <mxGeometry x="700" y="20" width="60" height="30" as="geometry" />
        </mxCell>
        <mxCell id="QymxJ_FqeQYcQsXggECh-54" value="" style="endArrow=none;html=1;rounded=0;exitX=1;exitY=0;exitDx=0;exitDy=0;entryX=0;entryY=0;entryDx=0;entryDy=0;dashed=1;" parent="1" source="QymxJ_FqeQYcQsXggECh-1" target="QymxJ_FqeQYcQsXggECh-44" edge="1">
          <mxGeometry width="50" height="50" relative="1" as="geometry">
            <mxPoint x="350" y="-120" as="sourcePoint" />
            <mxPoint x="400" y="-170" as="targetPoint" />
          </mxGeometry>
        </mxCell>
        <mxCell id="QymxJ_FqeQYcQsXggECh-55" value="" style="endArrow=none;html=1;rounded=0;exitX=1;exitY=1;exitDx=0;exitDy=0;entryX=0.15;entryY=0.538;entryDx=0;entryDy=0;dashed=1;entryPerimeter=0;" parent="1" source="QymxJ_FqeQYcQsXggECh-8" target="QymxJ_FqeQYcQsXggECh-29" edge="1">
          <mxGeometry width="50" height="50" relative="1" as="geometry">
            <mxPoint x="210" y="90" as="sourcePoint" />
            <mxPoint x="680" y="90" as="targetPoint" />
          </mxGeometry>
        </mxCell>
      </root>
    </mxGraphModel>
  </diagram>
</mxfile>
